<?xml version="1.0" encoding="UTF-8" standalone="no"?>
<svg
   xmlns:dc="http://purl.org/dc/elements/1.1/"
   xmlns:cc="http://creativecommons.org/ns#"
   xmlns:rdf="http://www.w3.org/1999/02/22-rdf-syntax-ns#"
   xmlns:svg="http://www.w3.org/2000/svg"
   xmlns="http://www.w3.org/2000/svg"
   xmlns:sodipodi="http://sodipodi.sourceforge.net/DTD/sodipodi-0.dtd"
   xmlns:inkscape="http://www.inkscape.org/namespaces/inkscape"
   width="212"
   height="32"
   viewBox="0 0 212 32"
   version="1.1"
   id="svg12"
   sodipodi:docname="logo.svg"
   inkscape:version="1.0.1 (3bc2e813f5, 2020-09-07)">
  <metadata
     id="metadata16">
    <rdf:RDF>
      <cc:Work
         rdf:about="">
        <dc:format>image/svg+xml</dc:format>
        <dc:type
           rdf:resource="http://purl.org/dc/dcmitype/StillImage" />
        <dc:title>logo</dc:title>
      </cc:Work>
    </rdf:RDF>
  </metadata>
  <sodipodi:namedview
     pagecolor="#ffffff"
     bordercolor="#666666"
     borderopacity="1"
     objecttolerance="10"
     gridtolerance="10"
     guidetolerance="10"
     inkscape:pageopacity="0"
     inkscape:pageshadow="2"
     inkscape:window-width="2560"
     inkscape:window-height="1056"
     id="namedview14"
     showgrid="false"
     inkscape:zoom="6.2304147"
     inkscape:cx="115.94896"
     inkscape:cy="14.82397"
     inkscape:window-x="1920"
     inkscape:window-y="24"
     inkscape:window-maximized="0"
     inkscape:current-layer="logo"
     inkscape:document-rotation="0" />
  <!-- Generator: Sketch 51.3 (57544) - http://www.bohemiancoding.com/sketch -->
  <title
     id="title2">logo</title>
  <desc
     id="desc4">Created with Sketch.</desc>
  <defs
     id="defs6" />
  <g
     id="Page-1"
     stroke="none"
     stroke-width="1"
     fill="none"
     fill-rule="evenodd">
    <g
       id="logo">
      <path
         d="M 18.648956,7.9742053 V 30.061521 H 15.372773 V 20.109924 H 3.8523 v 9.951597 H 0.56073612 V 7.9742053 H 3.8523 V 17.725847 H 15.372773 V 7.9742053 Z M 32.722698,27.431346 c 0.881856,0 1.671413,-0.148683 2.368695,-0.446053 0.697282,-0.29737 1.286886,-0.715221 1.768831,-1.253563 0.481944,-0.538342 0.851089,-1.179217 1.107442,-1.922642 0.256353,-0.743426 0.384528,-1.566309 0.384528,-2.468673 V 7.9742053 h 3.260802 V 21.340415 c 0,1.292022 -0.20508,2.486612 -0.615246,3.583805 -0.410165,1.097194 -0.99977,2.045688 -1.768831,2.845511 -0.769061,0.799823 -1.702174,1.425317 -2.799367,1.876499 -1.097193,0.451182 -2.332799,0.67677 -3.706854,0.67677 -1.374056,0 -2.609662,-0.225588 -3.706855,-0.67677 C 27.91865,29.195048 26.985537,28.569554 26.216476,27.769731 25.447415,26.969908 24.857811,26.021414 24.447645,24.92422 24.037479,23.827027 23.832399,22.632437 23.832399,21.340415 V 7.9742053 h 3.276183 V 21.325034 c 0,0.902364 0.125611,1.727811 0.376838,2.476363 0.251226,0.748552 0.617807,1.391991 1.099751,1.930333 0.481945,0.538342 1.071549,0.956193 1.768831,1.253563 0.697282,0.29737 1.486839,0.446053 2.368696,0.446053 z m 32.100436,-8.121241 v 8.613437 c -1.117702,0.799824 -2.307164,1.397119 -3.568424,1.791903 -1.26126,0.394784 -2.635294,0.592174 -4.122145,0.592174 -1.784221,0 -3.396661,-0.276858 -4.837368,-0.830582 -1.440708,-0.553723 -2.668623,-1.327899 -3.683783,-2.322552 -1.01516,-0.994652 -1.797027,-2.184114 -2.345624,-3.568424 -0.548596,-1.38431 -0.822891,-2.907027 -0.822891,-4.568198 0,-1.671425 0.26404,-3.201833 0.792129,-4.59127 0.528089,-1.389436 1.28432,-2.578899 2.268718,-3.568424 0.984398,-0.989525 2.176424,-1.7585743 3.576115,-2.307171 1.399691,-0.5485968 2.971115,-0.8228909 4.714319,-0.8228909 0.881856,0 1.699612,0.066651 2.453292,0.1999548 0.753679,0.1333038 1.453514,0.3230027 2.099525,0.5691021 0.646011,0.2460994 1.243306,0.5409016 1.791903,0.8844155 0.548596,0.3435138 1.058732,0.7306015 1.530423,1.1612755 l -0.938249,1.47659 c -0.143558,0.235845 -0.333257,0.384528 -0.569103,0.446053 -0.235845,0.06152 -0.492194,0.0051 -0.769057,-0.169193 -0.266607,-0.153812 -0.561409,-0.333257 -0.884415,-0.53834 -0.323006,-0.205082 -0.70753,-0.394781 -1.153585,-0.569102 -0.446056,-0.17432 -0.966446,-0.323003 -1.561186,-0.446053 -0.59474,-0.123049 -1.297138,-0.184573 -2.107216,-0.184573 -1.209989,0 -2.302039,0.197389 -3.276183,0.592173 -0.974143,0.394785 -1.804716,0.961318 -2.491744,1.699616 -0.687028,0.738299 -1.215108,1.627832 -1.584257,2.668628 -0.369149,1.040795 -0.553721,2.207187 -0.553721,3.499209 0,1.353547 0.194825,2.566081 0.584483,3.637639 0.389658,1.071558 0.940809,1.979036 1.653472,2.722462 0.712663,0.743425 1.579125,1.309958 2.599413,1.699616 1.020287,0.389657 2.161043,0.584483 3.422303,0.584483 0.492199,0 0.951065,-0.0282 1.376612,-0.0846 0.425547,-0.0564 0.833143,-0.135867 1.222801,-0.238408 0.389657,-0.102541 0.766491,-0.230716 1.130513,-0.384528 0.364022,-0.153813 0.725475,-0.323004 1.084371,-0.507578 V 21.81723 h -3.260802 c -0.205083,0 -0.37171,-0.06152 -0.499887,-0.184573 -0.128177,-0.12305 -0.192264,-0.27686 -0.192264,-0.461435 v -1.861117 z m 24.994351,-0.292242 c 0,1.650917 -0.26404,3.165944 -0.79213,4.545126 -0.52809,1.379183 -1.27407,2.568646 -2.23795,3.568425 -0.96389,0.999779 -2.11747,1.776519 -3.46076,2.330242 -1.34329,0.553724 -2.83525,0.830582 -4.475912,0.830582 -1.630409,0 -3.119801,-0.276858 -4.468221,-0.830582 -1.34842,-0.553723 -2.501994,-1.330463 -3.460756,-2.330242 -0.958762,-0.999779 -1.70474,-2.189242 -2.237956,-3.568425 -0.533215,-1.379182 -0.799819,-2.894209 -0.799819,-4.545126 0,-1.640663 0.266604,-3.153126 0.799819,-4.537436 0.533216,-1.384309 1.279194,-2.576336 2.237956,-3.576115 0.958762,-0.9997788 2.112336,-1.779082 3.460756,-2.3379329 1.34842,-0.5588508 2.837812,-0.838272 4.468221,-0.838272 1.640662,0 3.132622,0.2794212 4.475912,0.838272 1.34329,0.5588509 2.49687,1.3381541 3.46076,2.3379329 0.96388,0.999779 1.70986,2.191806 2.23795,3.576115 0.52809,1.38431 0.79213,2.896773 0.79213,4.537436 z m -3.35309,0 c 0,-1.31253 -0.17944,-2.491739 -0.53834,-3.537662 -0.3589,-1.045922 -0.86903,-1.932893 -1.53042,-2.660937 -0.66139,-0.728044 -1.4612,-1.286887 -2.39946,-1.676544 -0.93825,-0.389658 -1.98672,-0.584483 -3.145442,-0.584483 -1.158718,0 -2.207189,0.194825 -3.145443,0.584483 -0.938254,0.389657 -1.740629,0.9485 -2.407148,1.676544 -0.666519,0.728044 -1.179219,1.615014 -1.538114,2.660937 -0.358895,1.045923 -0.53834,2.225132 -0.53834,3.537662 0,1.322784 0.179445,2.504557 0.53834,3.545352 0.358895,1.040796 0.871595,1.925203 1.538114,2.653247 0.666519,0.728044 1.468894,1.284323 2.407148,1.668853 0.938254,0.384531 1.986725,0.576793 3.145443,0.576793 1.158722,0 2.207192,-0.192262 3.145442,-0.576793 0.93826,-0.38453 1.73807,-0.940809 2.39946,-1.668853 0.66139,-0.728044 1.17152,-1.612451 1.53042,-2.653247 0.3589,-1.040795 0.53834,-2.222568 0.53834,-3.545352 z"
         id="HUGO"
         fill="#000000"
         style="fill:#141945;fill-opacity:1;stroke-width:0.809534" />
      <text
         xml:space="preserve"
         style="font-style:normal;font-weight:normal;font-size:37.7409px;line-height:1.25;font-family:sans-serif;letter-spacing:-6.11579px;fill:#c87137;fill-opacity:1;stroke:none;stroke-width:0.943526"
         x="92.713539"
         y="30.547522"
         id="text20"
         transform="skewX(-12.328098)"><tspan
           sodipodi:role="line"
           id="tspan18"
           x="92.713539"
           y="30.547522"
           style="font-style:normal;font-variant:normal;font-weight:normal;font-stretch:normal;font-size:37.7409px;font-family:'Fira Code';-inkscape-font-specification:'Fira Code, Normal';font-variant-ligatures:normal;font-variant-caps:normal;font-variant-numeric:normal;font-variant-east-asian:normal;fill:#e63632;fill-opacity:1;stroke-width:0.943526">Villain</tspan></text>
    </g>
  </g>
</svg>
