<?xml version="1.0" encoding="UTF-8" standalone="no"?>
<svg
   xmlns:dc="http://purl.org/dc/elements/1.1/"
   xmlns:cc="http://creativecommons.org/ns#"
   xmlns:rdf="http://www.w3.org/1999/02/22-rdf-syntax-ns#"
   xmlns:svg="http://www.w3.org/2000/svg"
   xmlns="http://www.w3.org/2000/svg"
   xmlns:sodipodi="http://sodipodi.sourceforge.net/DTD/sodipodi-0.dtd"
   xmlns:inkscape="http://www.inkscape.org/namespaces/inkscape"
   width="233"
   height="32"
   viewBox="0 0 233 32"
   version="1.1"
   id="svg12"
   sodipodi:docname="logo.svg"
   inkscape:version="1.0.1 (3bc2e813f5, 2020-09-07)">
  <metadata
     id="metadata16">
    <rdf:RDF>
      <cc:Work
         rdf:about="">
        <dc:format>image/svg+xml</dc:format>
        <dc:type
           rdf:resource="http://purl.org/dc/dcmitype/StillImage" />
        <dc:title>logo</dc:title>
      </cc:Work>
    </rdf:RDF>
  </metadata>
  <sodipodi:namedview
     pagecolor="#ffffff"
     bordercolor="#666666"
     borderopacity="1"
     objecttolerance="10"
     gridtolerance="10"
     guidetolerance="10"
     inkscape:pageopacity="0"
     inkscape:pageshadow="2"
     inkscape:window-width="1920"
     inkscape:window-height="1056"
     id="namedview14"
     showgrid="false"
     inkscape:zoom="6.2304147"
     inkscape:cx="131.23391"
     inkscape:cy="14.5"
     inkscape:window-x="0"
     inkscape:window-y="24"
     inkscape:window-maximized="0"
     inkscape:current-layer="logo" />
  <!-- Generator: Sketch 51.3 (57544) - http://www.bohemiancoding.com/sketch -->
  <title
     id="title2">logo</title>
  <desc
     id="desc4">Created with Sketch.</desc>
  <defs
     id="defs6" />
  <g
     id="Page-1"
     stroke="none"
     stroke-width="1"
     fill="none"
     fill-rule="evenodd">
    <g
       id="logo">
      <path
         d="M 22.707,2.716 V 30 H 18.66 V 17.707 H 4.429 V 30 H 0.363 V 2.716 H 4.429 V 14.762 H 18.66 V 2.716 Z m 17.385,24.035 c 1.089339,0 2.064662,-0.183665 2.926,-0.551 0.861338,-0.367335 1.589664,-0.883497 2.185,-1.5485 0.595336,-0.665003 1.051332,-1.456662 1.368,-2.375 0.316668,-0.918338 0.475,-1.934828 0.475,-3.0495 V 2.716 h 4.028 v 16.511 c 0,1.596008 -0.253331,3.07166 -0.76,4.427 -0.506669,1.35534 -1.234995,2.526995 -2.185,3.515 -0.950005,0.988005 -2.10266,1.760664 -3.458,2.318 -1.35534,0.557336 -2.881658,0.836 -4.579,0.836 -1.697342,0 -3.22366,-0.278664 -4.579,-0.836 -1.35534,-0.557336 -2.507995,-1.329995 -3.458,-2.318 -0.950005,-0.988005 -1.678331,-2.15966 -2.185,-3.515 -0.506669,-1.35534 -0.76,-2.830992 -0.76,-4.427 V 2.716 h 4.047 v 16.492 c 0,1.114672 0.155165,2.134329 0.4655,3.059 0.310335,0.924671 0.763164,1.719497 1.3585,2.3845 0.595336,0.665003 1.323662,1.181165 2.185,1.5485 0.861338,0.367335 1.836661,0.551 2.926,0.551 z M 79.745,16.719 v 10.64 c -1.380674,0.988005 -2.849992,1.725831 -4.408,2.2135 -1.558008,0.487669 -3.255324,0.7315 -5.092,0.7315 -2.204011,0 -4.195824,-0.341997 -5.9755,-1.026 -1.779676,-0.684003 -3.296494,-1.640327 -4.5505,-2.869 -1.254006,-1.228673 -2.21983,-2.697991 -2.8975,-4.408 -0.67767,-1.710009 -1.0165,-3.59099 -1.0165,-5.643 0,-2.064677 0.326163,-3.955158 0.9785,-5.6715 0.652337,-1.7163419 1.586494,-3.1856606 2.8025,-4.408 1.216006,-1.2223394 2.688491,-2.1723299 4.4175,-2.85 1.729009,-0.6776701 3.670156,-1.0165 5.8235,-1.0165 1.089339,0 2.099495,0.082333 3.0305,0.247 0.931005,0.1646675 1.795496,0.3989985 2.5935,0.703 0.798004,0.3040015 1.53583,0.6681645 2.2135,1.0925 0.67767,0.4243355 1.30783,0.9024973 1.8905,1.4345 L 78.396,7.713 C 78.218666,8.0043348 77.984335,8.1879996 77.693,8.264 77.401665,8.34 77.085002,8.27033 76.743,8.055 76.413665,7.864999 76.049502,7.6433346 75.6505,7.39 75.251498,7.1366654 74.776503,6.9023344 74.2255,6.687 73.674497,6.4716656 73.03167,6.2880008 72.297,6.136 71.56233,5.9839992 70.694672,5.908 69.694,5.908 c -1.494674,0 -2.843661,0.2438309 -4.047,0.7315 -1.203339,0.4876691 -2.229329,1.1874954 -3.078,2.0995 -0.848671,0.9120046 -1.500998,2.010827 -1.957,3.2965 -0.456002,1.285673 -0.684,2.726492 -0.684,4.3225 0,1.672008 0.240664,3.169827 0.722,4.4935 0.481336,1.323673 1.162162,2.444662 2.0425,3.363 0.880338,0.918338 1.95066,1.618164 3.211,2.0995 1.26034,0.481336 2.669492,0.722 4.2275,0.722 0.608003,0 1.174831,-0.03483 1.7005,-0.1045 0.525669,-0.06967 1.029164,-0.167833 1.5105,-0.2945 0.481336,-0.126667 0.946831,-0.284999 1.3965,-0.475 0.449669,-0.190001 0.896164,-0.398999 1.3395,-0.627 V 19.816 H 72.05 c -0.253335,0 -0.459166,-0.076 -0.6175,-0.228 -0.158334,-0.152001 -0.2375,-0.341999 -0.2375,-0.57 v -2.299 z m 30.875,-0.361 c 0,2.039344 -0.32616,3.910825 -0.9785,5.6145 -0.65234,1.703675 -1.57383,3.172994 -2.7645,4.408 -1.19067,1.235006 -2.61566,2.194497 -4.275,2.8785 -1.65934,0.684003 -3.502323,1.026 -5.529,1.026 -2.01401,0 -3.853825,-0.341997 -5.5195,-1.026 -1.665675,-0.684003 -3.090661,-1.643494 -4.275,-2.8785 -1.184339,-1.235006 -2.10583,-2.704325 -2.7645,-4.408 -0.65867,-1.703675 -0.988,-3.575156 -0.988,-5.6145 0,-2.026677 0.32933,-3.894991 0.988,-5.605 0.65867,-1.7100086 1.580161,-3.1824938 2.7645,-4.4175 1.184339,-1.2350062 2.609325,-2.1976632 4.275,-2.888 1.665675,-0.6903368 3.50549,-1.0355 5.5195,-1.0355 2.026677,0 3.86966,0.3451632 5.529,1.0355 1.65934,0.6903368 3.08433,1.6529938 4.275,2.888 1.19067,1.2350062 2.11216,2.7074914 2.7645,4.4175 0.65234,1.710009 0.9785,3.578323 0.9785,5.605 z m -4.142,0 c 0,-1.621341 -0.22166,-3.077993 -0.665,-4.37 -0.44334,-1.292006 -1.0735,-2.3876622 -1.8905,-3.287 -0.817,-0.8993378 -1.80499,-1.5896643 -2.964,-2.071 -1.159006,-0.4813357 -2.45416,-0.722 -3.8855,-0.722 -1.43134,0 -2.726494,0.2406643 -3.8855,0.722 -1.159006,0.4813357 -2.150163,1.1716622 -2.9735,2.071 -0.823337,0.8993378 -1.456665,1.994993 -1.9,3.287 -0.443336,1.292007 -0.665,2.748659 -0.665,4.37 0,1.634008 0.221664,3.093827 0.665,4.3795 0.443335,1.285673 1.076663,2.378162 1.9,3.2775 0.823337,0.899338 1.814494,1.586498 2.9735,2.0615 1.159006,0.475002 2.45416,0.7125 3.8855,0.7125 1.43134,0 2.726494,-0.237498 3.8855,-0.7125 1.15901,-0.475002 2.147,-1.162162 2.964,-2.0615 0.817,-0.899338 1.44716,-1.991827 1.8905,-3.2775 0.44334,-1.285673 0.665,-2.745492 0.665,-4.3795 z"
         id="HUGO"
         fill="#000000"
         style="fill:#141945;fill-opacity:1" />
      <text
         xml:space="preserve"
         style="font-style:normal;font-weight:normal;font-size:37.7409px;line-height:1.25;font-family:sans-serif;letter-spacing:-6.11579px;fill:#c87137;fill-opacity:1;stroke:none;stroke-width:0.943526"
         x="113.51604"
         y="30.547522"
         id="text20"
         transform="skewX(-12.328098)"><tspan
           sodipodi:role="line"
           id="tspan18"
           x="113.51604"
           y="30.547522"
           style="font-style:normal;font-variant:normal;font-weight:normal;font-stretch:normal;font-size:37.7409px;font-family:'Fira Code';-inkscape-font-specification:'Fira Code, Normal';font-variant-ligatures:normal;font-variant-caps:normal;font-variant-numeric:normal;font-variant-east-asian:normal;fill:#e63632;fill-opacity:1;stroke-width:0.943526">Villain</tspan></text>
    </g>
  </g>
</svg>
